<?xml version="1.0" encoding="UTF-8"?>
<svg version="1.1" xmlns="http://www.w3.org/2000/svg" width="102" height="102">
<path d="M0 0 C4.48021006 2.69580091 6.74215561 6.47646682 8.375 11.375 C8.47082087 13.92834435 8.51439278 16.44768016 8.5 19 C8.50580078 20.04027344 8.50580078 20.04027344 8.51171875 21.1015625 C8.50166646 26.24833354 8.50166646 26.24833354 7.375 27.375 C4.67845146 27.44819621 2.00808542 27.46742537 -0.6875 27.4375 C-1.44611328 27.43298828 -2.20472656 27.42847656 -2.98632812 27.42382812 C-4.86591871 27.4120068 -6.74546899 27.39407078 -8.625 27.375 C-10.37663456 23.60277911 -10.84990027 20.708361 -10.75 16.5625 C-10.73195313 15.58667969 -10.71390625 14.61085938 -10.6953125 13.60546875 C-10.67210938 12.86941406 -10.64890625 12.13335937 -10.625 11.375 C-11.285 11.375 -11.945 11.375 -12.625 11.375 C-12.625 25.235 -12.625 39.095 -12.625 53.375 C-11.635 52.88 -11.635 52.88 -10.625 52.375 C-10.295 46.765 -9.965 41.155 -9.625 35.375 C-6.840625 35.354375 -4.05625 35.33375 -1.1875 35.3125 C-0.30908447 35.303396 0.56933105 35.29429199 1.47436523 35.28491211 C3.44145974 35.27776909 5.40853621 35.32468107 7.375 35.375 C9.6035188 37.6035188 8.68486433 43.05386729 8.6940918 46.14746094 C8.57171717 53.21202964 7.17574531 57.64606867 1.9375 62.75 C-4.68052352 66.9467954 -10.94305879 67.13485426 -18.625 66.375 C-22.60767315 65.17711071 -25.52043997 63.44274136 -28.5 60.5625 C-31.57088482 54.59133508 -31.94293077 48.80615449 -31.9609375 42.22265625 C-31.9675943 41.36369247 -31.9742511 40.5047287 -31.98110962 39.61973572 C-31.99118627 37.81202317 -31.99592819 36.0042738 -31.99560547 34.1965332 C-31.99998208 31.44875252 -32.03636292 28.70257571 -32.07421875 25.95507812 C-32.08008752 24.1901096 -32.08405651 22.42513353 -32.0859375 20.66015625 C-32.10030853 19.84845474 -32.11467957 19.03675323 -32.12948608 18.20045471 C-32.08462671 12.53125091 -30.89812623 8.07212291 -27.625 3.375 C-20.05944358 -2.64656532 -8.97631638 -4.08939933 0 0 Z " fill="#FB7521" transform="translate(68.625,17.625)"/>
<path d="M0 0 C1.16789062 -0.00257812 2.33578125 -0.00515625 3.5390625 -0.0078125 C6.375 0.125 6.375 0.125 7.375 1.125 C7.47430533 3.11387494 7.50299462 5.10630417 7.50439453 7.09765625 C7.50754669 8.37568115 7.51069885 9.65370605 7.51394653 10.97045898 C7.51215675 12.37613967 7.5101058 13.78182005 7.5078125 15.1875 C7.50848558 16.61857113 7.50945564 18.04964215 7.51071167 19.48071289 C7.51218844 22.48357224 7.51003476 25.4864019 7.50537109 28.48925781 C7.49967381 32.34652571 7.50295292 36.20372404 7.50894356 40.06098938 C7.51254974 43.01713591 7.51141032 45.97326583 7.50881577 48.92941284 C7.50814665 50.35204069 7.50897437 51.77467003 7.51129532 53.19729614 C7.51382274 55.18231174 7.50929042 57.16733259 7.50439453 59.15234375 C7.50359894 60.28406006 7.50280334 61.41577637 7.50198364 62.58178711 C7.375 65.125 7.375 65.125 6.375 66.125 C3.6976862 66.22481214 1.05195825 66.26379875 -1.625 66.25 C-2.75035156 66.25580078 -2.75035156 66.25580078 -3.8984375 66.26171875 C-9.49838947 66.25161053 -9.49838947 66.25161053 -10.625 65.125 C-10.72415365 63.23860249 -10.7529931 61.34847373 -10.75439453 59.45947266 C-10.75754669 58.24796539 -10.76069885 57.03645813 -10.76394653 55.78823853 C-10.7619223 54.46851044 -10.75989807 53.14878235 -10.7578125 51.7890625 C-10.75848574 50.43004336 -10.75945593 49.07102434 -10.76071167 47.71200562 C-10.76218871 44.85877337 -10.76003456 42.00557237 -10.75537109 39.15234375 C-10.7496846 35.49481011 -10.75294589 31.83735002 -10.75894356 28.17981911 C-10.76255824 25.37113899 -10.76140622 22.56247627 -10.75881577 19.75379562 C-10.75782364 17.74908145 -10.7608622 15.74436659 -10.76394653 13.73965454 C-10.76079437 12.52184296 -10.75764221 11.30403137 -10.75439453 10.04931641 C-10.75359894 8.975336 -10.75280334 7.90135559 -10.75198364 6.79483032 C-10.625 4.125 -10.625 4.125 -9.625 1.125 C-6.23107349 -0.00630884 -3.57165128 -0.0079194 0 0 Z " fill="#FB7422" transform="translate(28.625,16.875)"/>
<path d="M0 0 C2.14576637 -0.02685938 4.29162645 -0.04633088 6.4375 -0.0625 C7.63246094 -0.07410156 8.82742187 -0.08570312 10.05859375 -0.09765625 C13 0 13 0 14 1 C14.09930533 2.98887494 14.12799462 4.98130417 14.12939453 6.97265625 C14.13254669 8.25068115 14.13569885 9.52870605 14.13894653 10.84545898 C14.13715675 12.25113967 14.1351058 13.65682005 14.1328125 15.0625 C14.13348558 16.49357113 14.13445564 17.92464215 14.13571167 19.35571289 C14.13718844 22.35857224 14.13503476 25.3614019 14.13037109 28.36425781 C14.12467381 32.22152571 14.12795292 36.07872404 14.13394356 39.93598938 C14.13754974 42.89213591 14.13641032 45.84826583 14.13381577 48.80441284 C14.13314665 50.22704069 14.13397437 51.64967003 14.13629532 53.07229614 C14.13882274 55.05731174 14.13429042 57.04233259 14.12939453 59.02734375 C14.12859894 60.15906006 14.12780334 61.29077637 14.12698364 62.45678711 C14 65 14 65 13 66 C10.3226862 66.09981214 7.67695825 66.13879875 5 66.125 C3.87464844 66.13080078 3.87464844 66.13080078 2.7265625 66.13671875 C-2.87338947 66.12661053 -2.87338947 66.12661053 -4 65 C-4.09391296 63.09756238 -4.11743658 61.19161541 -4.11352539 59.28686523 C-4.11344986 58.0656749 -4.11337433 56.84448456 -4.11329651 55.58628845 C-4.10818911 54.24372314 -4.10297311 52.90115825 -4.09765625 51.55859375 C-4.09579199 50.19238842 -4.09436813 48.82618243 -4.09336853 47.4599762 C-4.08954394 43.85798305 -4.07971417 40.25603 -4.06866455 36.65405273 C-4.05844916 32.98096255 -4.05387064 29.30786591 -4.04882812 25.63476562 C-4.03809184 18.42315877 -4.02101614 11.211585 -4 4 C-3.67 4 -3.34 4 -3 4 C-2.67 23.8 -2.34 43.6 -2 64 C2.62 64 7.24 64 12 64 C12 43.54 12 23.08 12 2 C8.04 2 4.08 2 0 2 C0 1.34 0 0.68 0 0 Z " fill="#DDAE8E" transform="translate(22,17)"/>
<path d="M0 0 C3.59045396 2.14194464 5.39233115 4.74010711 7.375 8.375 C6.715 9.695 6.055 11.015 5.375 12.375 C5.375 11.055 5.375 9.735 5.375 8.375 C4.4159375 8.00375 4.4159375 8.00375 3.4375 7.625 C1.375 6.375 1.375 6.375 0.74609375 4.296875 C0.56240234 3.34554688 0.56240234 3.34554688 0.375 2.375 C-7.79174095 1.43379759 -15.45825905 1.43379759 -23.625 2.375 C-23.625 3.035 -23.625 3.695 -23.625 4.375 C-24.43541748 5.02364014 -25.24583496 5.67228027 -26.08081055 6.34057617 C-29.75090277 10.71785055 -29.35429262 14.37614467 -29.33203125 19.92578125 C-29.34715256 20.93972458 -29.36227386 21.95366791 -29.37785339 22.99833679 C-29.42074883 26.22828376 -29.42957047 29.45729649 -29.4375 32.6875 C-29.46064277 34.88088424 -29.48600764 37.07424625 -29.51367188 39.26757812 C-29.57654211 44.63672759 -29.61146183 50.00551171 -29.625 55.375 C-31.18658234 52.59159463 -31.87966548 50.56337174 -31.91552734 47.37597656 C-31.92828705 46.60127014 -31.94104675 45.82656372 -31.95419312 45.02838135 C-31.95641876 44.19917175 -31.95864441 43.36996216 -31.9609375 42.515625 C-31.9675943 41.65241638 -31.9742511 40.78920776 -31.98110962 39.89984131 C-31.99122438 38.07419969 -31.995927 36.24852118 -31.99560547 34.42285156 C-31.99996316 31.64845701 -32.03625099 28.87567411 -32.07421875 26.1015625 C-32.0800905 24.32292207 -32.0840575 22.54427413 -32.0859375 20.765625 C-32.10030853 19.94451233 -32.11467957 19.12339966 -32.12948608 18.27740479 C-32.08494161 12.57789906 -30.92221169 8.09612812 -27.625 3.375 C-20.05944358 -2.64656532 -8.97631638 -4.08939933 0 0 Z " fill="#E7A579" transform="translate(68.625,17.625)"/>
<path d="M0 0 C2.81256281 -0.02684312 5.62487241 -0.04676188 8.4375 -0.0625 C9.23994141 -0.07087891 10.04238281 -0.07925781 10.86914062 -0.08789062 C12.91295221 -0.0965143 14.95683902 -0.0522815 17 0 C19.2285188 2.2285188 18.30986433 7.67886729 18.3190918 10.77246094 C18.19671717 17.83702964 16.80074531 22.27106867 11.5625 27.375 C4.94447648 31.5717954 -1.31805879 31.75985426 -9 31 C-13.14480441 29.75334565 -16.04049933 28.01946946 -19 24.875 C-20 23 -20 23 -20 21 C-19.01 21 -18.02 21 -17 21 C-16.95875 21.598125 -16.9175 22.19625 -16.875 22.8125 C-16.14379271 25.25925717 -16.14379271 25.25925717 -13.4375 26.625 C-9.53779028 28.18488389 -6.24514503 28.34320316 -2.125 28.1875 C-1.09246094 28.16719727 -1.09246094 28.16719727 -0.0390625 28.14648438 C1.64097001 28.1114837 3.3205935 28.05768954 5 28 C5 27.34 5 26.68 5 26 C6.11375 25.7525 7.2275 25.505 8.375 25.25 C11.91367463 24.39973023 11.91367463 24.39973023 13.1875 22.46875 C14.40381862 18.77301265 14.47102597 15.11859751 14.625 11.25 C14.66367188 10.45722656 14.70234375 9.66445313 14.7421875 8.84765625 C14.836108 6.89880584 14.91912822 4.94943549 15 3 C8.07 2.505 8.07 2.505 1 2 C1 6.62 1 11.24 1 16 C0.67 16 0.34 16 0 16 C0 10.72 0 5.44 0 0 Z " fill="#BF9173" transform="translate(59,53)"/>
<path d="M0 0 C1.65 0.33 3.3 0.66 5 1 C5 5.62 5 10.24 5 15 C9.95 14.67 14.9 14.34 20 14 C19.95875 12.411875 19.9175 10.82375 19.875 9.1875 C19.77518447 5.3446021 19.79086 4.31371 22 1 C22.02685095 3.47923801 22.04676547 5.9581884 22.0625 8.4375 C22.07087891 9.14455078 22.07925781 9.85160156 22.08789062 10.58007812 C22.09653588 12.38693559 22.05220011 14.19387603 22 16 C21 17 21 17 17.40234375 17.09765625 C15.91403133 17.0909822 14.42573568 17.07902183 12.9375 17.0625 C12.17888672 17.05798828 11.42027344 17.05347656 10.63867188 17.04882812 C8.75908129 17.0370068 6.87953101 17.01907078 5 17 C3.24836544 13.22777911 2.77509973 10.333361 2.875 6.1875 C2.89304687 5.21167969 2.91109375 4.23585938 2.9296875 3.23046875 C2.95289063 2.49441406 2.97609375 1.75835938 3 1 C2.34 1 1.68 1 1 1 C0.67 14.86 0.34 28.72 0 43 C-0.66 43 -1.32 43 -2 43 C-2.04934656 37.19760386 -2.08569402 31.39532919 -2.10986328 25.59277344 C-2.11993627 23.61781691 -2.13359521 21.64287534 -2.15087891 19.66796875 C-2.17507039 16.83329582 -2.18646991 13.99881962 -2.1953125 11.1640625 C-2.20563507 10.27756012 -2.21595764 9.39105774 -2.22659302 8.47769165 C-2.2269907 6.31714048 -2.12272534 4.15706282 -2 2 C-1.34 1.34 -0.68 0.68 0 0 Z " fill="#DAAC87" transform="translate(55,28)"/>
<path d="M0 0 C2 2 2 2 2.13525391 5.89892578 C2.09286789 7.58135236 2.03918783 9.26351768 1.9765625 10.9453125 C1.95153656 11.8303244 1.92651062 12.7153363 1.90072632 13.62716675 C1.81840545 16.46016056 1.72186323 19.29246968 1.625 22.125 C1.56677276 24.04294058 1.50946923 25.96090943 1.453125 27.87890625 C1.31280872 32.5863329 1.15973467 37.29319386 1 42 C0.34 42 -0.32 42 -1 42 C-1.02464638 36.17928378 -1.0428343 30.35859766 -1.05493164 24.5378418 C-1.05997267 22.55606559 -1.06680538 20.57429311 -1.07543945 18.5925293 C-1.08751515 15.75047891 -1.09323045 12.90847753 -1.09765625 10.06640625 C-1.10281754 9.17474258 -1.10797882 8.28307892 -1.11329651 7.36439514 C-1.11349177 5.24259399 -1.0621003 3.1208922 -1 1 C-0.67 0.67 -0.34 0.34 0 0 Z " fill="#E8B486" transform="translate(54,29)"/>
<path d="M0 0 C0.33 0 0.66 0 1 0 C1.0093457 1.28688721 1.01869141 2.57377441 1.02832031 3.8996582 C1.06815815 8.66905481 1.13389949 13.43780212 1.20751953 18.20678711 C1.23576522 20.2718065 1.25696178 22.33693474 1.27099609 24.40209961 C1.29237584 27.36889515 1.33900009 30.3343771 1.390625 33.30078125 C1.39185364 34.2258699 1.39308228 35.15095856 1.39434814 36.1040802 C1.35337571 41.12106535 1.35337571 41.12106535 4.03808594 45.10620117 C5.0092334 45.54863159 5.0092334 45.54863159 6 46 C5.505 48.475 5.505 48.475 5 51 C7.31 51.66 9.62 52.32 12 53 C12 53.66 12 54.32 12 55 C8.59687262 53.94124926 5.98646769 52.99097846 3 51 C3 49.68 3 48.36 3 47 C2.01 47 1.02 47 0 47 C0 31.49 0 15.98 0 0 Z " fill="#F37A2D" transform="translate(39,27)"/>
<path d="M0 0 C0.99 0 1.98 0 3 0 C3.061875 0.8971875 3.061875 0.8971875 3.125 1.8125 C3.85620729 4.25925717 3.85620729 4.25925717 6.5625 5.625 C10.46220972 7.18488389 13.75485497 7.34320316 17.875 7.1875 C18.90753906 7.16719727 18.90753906 7.16719727 19.9609375 7.14648438 C21.64097001 7.1114837 23.3205935 7.05768954 25 7 C25 6.34 25 5.68 25 5 C26.670625 4.5359375 26.670625 4.5359375 28.375 4.0625 C31.7945155 3.17673517 31.7945155 3.17673517 34 2 C32.26949916 6.0577261 30.48264108 7.42600082 26.54296875 9.234375 C19.98919004 11.20755569 12.62451408 11.15567813 6.375 8.25 C3.57917098 6.58665868 1.55885596 4.92285493 0 2 C0 1.34 0 0.68 0 0 Z " fill="#DE9463" transform="translate(39,74)"/>
<path d="M0 0 C2.97 0 5.94 0 9 0 C9 0.33 9 0.66 9 1 C6.69 1.33 4.38 1.66 2 2 C1.67 6.62 1.34 11.24 1 16 C0.34 16 -0.32 16 -1 16 C-1 16.99 -1 17.98 -1 19 C-2.32 19 -3.64 19 -5 19 C-5 17.35 -5 15.7 -5 14 C-4.67 14.66 -4.34 15.32 -4 16 C-3.01 15.34 -2.02 14.68 -1 14 C-0.41312216 10.65386488 -0.41312216 10.65386488 -0.3125 6.875 C-0.24675781 5.59367187 -0.18101563 4.31234375 -0.11328125 2.9921875 C-0.07589844 2.00476562 -0.03851563 1.01734375 0 0 Z " fill="#D6793D" transform="translate(60,55)"/>
<path d="M0 0 C0.33 0 0.66 0 1 0 C2.70159453 13.6332574 2.70159453 13.6332574 -1 20 C-2.27101882 16.22488441 -1.92892657 12.80961699 -1.625 8.875 C-1.53476563 7.63492188 -1.44453125 6.39484375 -1.3515625 5.1171875 C-1 2 -1 2 0 0 Z " fill="#BE7B50" transform="translate(75,57)"/>
<path d="M0 0 C0.99 0 1.98 0 3 0 C3.09667969 0.61488281 3.19335938 1.22976562 3.29296875 1.86328125 C3.89482273 4.42139994 3.89482273 4.42139994 7.3125 6.1875 C12.64159857 8.66276436 18.20330067 8.80677669 24 9 C24 9.33 24 9.66 24 10 C9.37107064 10.8028071 9.37107064 10.8028071 3 6 C0 2.8125 0 2.8125 0 0 Z " fill="#D7AF92" transform="translate(39,74)"/>
<path d="M0 0 C4.33050371 -0.42455919 6.31030775 -0.53642731 9.8125 2.1875 C11.83510721 4.78799498 13.01869159 6.87765504 14 10 C13.34 10.66 12.68 11.32 12 12 C12 10.68 12 9.36 12 8 C11.360625 7.7525 10.72125 7.505 10.0625 7.25 C8 6 8 6 7.25 3.875 C7.12625 2.946875 7.12625 2.946875 7 2 C4.69 1.67 2.38 1.34 0 1 C0 0.67 0 0.34 0 0 Z " fill="#B97B52" transform="translate(62,18)"/>
<path d="M0 0 C1.58294782 -0.05437607 3.16644256 -0.09296271 4.75 -0.125 C5.63171875 -0.14820313 6.5134375 -0.17140625 7.421875 -0.1953125 C10.1135858 0.00860498 11.69904974 0.63448279 14 2 C10.43954823 3.18681726 7.56191663 3.09689832 3.8125 3.0625 C2.54019531 3.05347656 1.26789062 3.04445313 -0.04296875 3.03515625 C-1.50669922 3.01775391 -1.50669922 3.01775391 -3 3 C-2.01 2.67 -1.02 2.34 0 2 C0 1.34 0 0.68 0 0 Z " fill="#D8A17B" transform="translate(54,16)"/>
<path d="M0 0 C0 0.66 0 1.32 0 2 C-5.445 3.485 -5.445 3.485 -11 5 C-6.61568387 0.61568387 -5.94833709 0 0 0 Z " fill="#927460" transform="translate(54,16)"/>
</svg>
